<?xml version="1.0" encoding="utf-8"?>
<!-- Generator: Adobe Illustrator 19.1.0, SVG Export Plug-In . SVG Version: 6.00 Build 0)  -->
<svg version="1.1" id="Layer_1" xmlns="http://www.w3.org/2000/svg" xmlns:xlink="http://www.w3.org/1999/xlink" x="0px" y="0px"
	 viewBox="-489 724 621 153" style="enable-background:new -489 724 621 153;" xml:space="preserve">
<style type="text/css">
	.st0{fill:#FFFFFF;}
</style>
<title>DART_Logo_FINAL</title>
<path class="st0" d="M-392,784.1h-14.1c-1.1,0-2,0.9-2,2V830c0,1.1-0.9,2-2,2h-13.3c-1.1,0-2-0.9-2-2v-43.9c0-1.1-0.9-2-2-2h-14.2
	c-1.1,0-2-0.9-2-2V771c0-1.1,0.9-2,2-2h49.7c1.1,0,2,0.9,2,2v11.1C-390,783.2-390.9,784.1-392,784.1z"/>
<path class="st0" d="M-316.8,771v59c0,1.1-0.9,2-2,2h-13.2c-1.1,0-2-0.9-2-2v-20.7c0-1.1-0.9-2-2-2h-16.9c-1.1,0-2,0.9-2,2V830
	c0,1.1-0.9,2-2,2H-370c-1.1,0-2-0.9-2-2v-59c0-1.1,0.9-2,2-2h13.1c1.1,0,2,0.9,2,2v19.3c0,1.1,0.9,2,2,2h16.9c1.1,0,2-0.9,2-2V771
	c0-1.1,0.9-2,2-2h13.1C-317.7,769-316.8,769.9-316.8,771C-316.8,771-316.8,771-316.8,771z"/>
<path class="st0" d="M-245.9,829l-11.3-18.6c-0.5-0.8-0.3-1.9,0.4-2.6c4.9-4.3,7.7-10.5,7.6-17c0-10.7-8.8-21.8-21-21.8h-26.7
	c-1.1,0-2,0.9-2,2v59c0,1.1,0.9,2,2,2h13.1c1.1,0,2-0.9,2-2v-15.4c0-1.1,0.9-2,2-2h3.3c0.7,0,1.3,0.4,1.7,1L-264,831
	c0.4,0.6,1,1,1.7,1h14.7c1.1,0,2-0.9,2-2C-245.6,829.7-245.7,829.3-245.9,829z M-270.9,797.6h-8.8c-1.1,0-2-0.9-2-2v-9.5
	c0-1.1,0.9-2,2-2h8.4c2.1,0,4.8,2.4,4.8,6.7C-266.6,795.2-268.7,797.6-270.9,797.6L-270.9,797.6z"/>
<path class="st0" d="M-229.1,769h13.1c1.1,0,2,0.9,2,2v59c0,1.1-0.9,2-2,2h-13.1c-1.1,0-2-0.9-2-2v-59
	C-231.1,769.9-230.2,769-229.1,769z"/>
<path class="st0" d="M-196,830v-59c0-1.1,0.9-2,2-2h13.1c1.1,0,2,0.9,2,2v43.9c0,1.1,0.9,2,2,2h24.3c1.1,0,2,0.9,2,2V830
	c0,1.1-0.9,2-2,2H-194C-195.1,832-196,831.1-196,830z"/>
<path class="st0" d="M-132.5,830v-59c0-1.1,0.9-2,2-2h13.1c1.1,0,2,0.9,2,2v43.9c0,1.1,0.9,2,2,2h24.3c1.1,0,2,0.9,2,2V830
	c0,1.1-0.9,2-2,2h-41.5C-131.6,832-132.5,831.1-132.5,830z"/>
<path class="st0" d="M-67.5,769h13.1c1.1,0,2,0.9,2,2v59c0,1.1-0.9,2-2,2h-13.1c-1.1,0-2-0.9-2-2v-59C-69.5,769.9-68.6,769-67.5,769
	z"/>
<path class="st0" d="M8.2,787.9c-0.5,1-1.7,1.4-2.7,0.9c0,0,0,0,0,0c-3-1.6-9.1-4.6-14.4-4.6c-2.9,0-4.9,0.9-4.9,3
	c0,3.2,4.3,3.9,11.4,6.2c11.3,3.6,18.4,7.6,18.4,19.1C15.9,827.2,4,832-7.3,832c-8.7-0.1-17.2-2.3-24.9-6.3c-1-0.5-1.3-1.7-0.9-2.7
	l5.5-11.2c0.5-1,1.7-1.4,2.7-0.9c0,0,0.1,0,0.1,0.1c3.4,1.9,10.8,5.7,17.8,5.7c3.6,0,4.9-1,4.9-2.7c0-3.6-6.3-4.3-13.6-6.9
	c-10.8-3.6-15.5-8.2-15.5-17.3c0-13.6,10.8-20.9,22.8-20.9c7.9,0,15.6,3.1,21.1,5.8c1,0.5,1.4,1.7,0.9,2.7c0,0,0,0,0,0L8.2,787.9z"
	/>
<path class="st0" d="M85,784.1H71.1c-1.1,0-2,0.9-2,2V830c0,1.1-0.9,2-2,2H53.9c-1.1,0-2-0.9-2-2v-43.9c0-1.1-0.9-2-2-2h-14
	c-1.1,0-2-0.9-2-2V771c0-1.1,0.9-2,2-2H85c1.1,0,2,0.9,2,2v11.1C87,783.2,86.1,784.1,85,784.1z"/>
</svg>
