<svg width="621" height="153" xmlns="http://www.w3.org/2000/svg">
 <defs>
  <style>.cls-1{fill:#d30000;}</style>
 </defs>
 <title>DART_Logo_FINAL</title>
 <g>
  <title>background</title>
  <rect fill="none" id="canvas_background" height="402" width="582" y="-1" x="-1"/>
 </g>
 <g>
  <title>Layer 1</title>
  <path fill="white" id="svg_1" d="m619.214286,0l-616.07,0a2.5,2.5 0 0 0 -2.43,2.5l0,0l0,13a2.5,2.5 0 0 0 2.43,2.5l598.07,0a2.5,2.5 0 0 1 2.5,2.5l0,85l0,0a2.5,2.5 0 0 0 2.5,2.5l13,0a2.5,2.5 0 0 0 2.5,-2.5l0,0l0,-103a2.5,2.5 0 0 0 -2.5,-2.5z" class="cls-1"/>
  <path id="svg_2" d="m3.214286,153l616.07,0a2.5,2.5 0 0 0 2.43,-2.5l0,0l0,-13a2.5,2.5 0 0 0 -2.43,-2.49l-598.07,0a2.5,2.5 0 0 1 -2.5,-2.5l0,-85l0,0a2.5,2.5 0 0 0 -2.5,-2.51l-13,0a2.5,2.5 0 0 0 -2.5,2.5l0,0l0,103a2.5,2.5 0 0 0 2.5,2.5z" class="cls-1"/>
  <text stroke="#000" transform="matrix(39.59496117947749,0,0,3.138131070288921,-15668.70033572213,-218.38521682511723) " xml:space="preserve" text-anchor="start" font-family="Helvetica, Arial, sans-serif" font-size="24" id="svg_12" y="102.5" x="397" stroke-width="0" fill="#000000"/>
  <text font-weight="bold" transform="matrix(3.9349976035594665,0,0,3.550661092420647,-165.07797384491994,-102.39869294160039) " xml:space="preserve" text-anchor="start" font-family="Helvetica, Arial, sans-serif" font-size="24" id="svg_14" y="58.623124" x="52.915598" stroke-width="0" fill="#e02121">NGONPLUS</text>
 </g>
</svg>