<svg width="621" height="153" xmlns="http://www.w3.org/2000/svg">
 <defs>
  <style>.cls-1{fill:#d30000;}</style>
 </defs>
 <title>DART_Logo_FINAL</title>
 <g>
  <title>background</title>
  <rect fill="none" id="canvas_background" height="402" width="582" y="-1" x="-1"/>
 </g>
 <g>
  <title>Layer 1</title>
  <path id="svg_1" d="m618.5,0l-616.07,0a2.5,2.5 0 0 0 -2.43,2.5l0,0l0,13a2.5,2.5 0 0 0 2.43,2.5l598.07,0a2.5,2.5 0 0 1 2.5,2.5l0,85l0,0a2.5,2.5 0 0 0 2.5,2.5l13,0a2.5,2.5 0 0 0 2.5,-2.5l0,0l0,-103a2.5,2.5 0 0 0 -2.5,-2.5z" class="cls-1"/>
  <path id="svg_2" d="m2.5,153l616.07,0a2.5,2.5 0 0 0 2.43,-2.5l0,0l0,-13a2.5,2.5 0 0 0 -2.43,-2.49l-598.07,0a2.5,2.5 0 0 1 -2.5,-2.5l0,-85l0,0a2.5,2.5 0 0 0 -2.5,-2.51l-13,0a2.5,2.5 0 0 0 -2.5,2.5l0,0l0,103a2.5,2.5 0 0 0 2.5,2.5z" class="cls-1"/>
  <text stroke="#d30000" transform="matrix(1.1281470060348509,0,0,1,-6.446247756481171,0) " font-weight="bold" xml:space="preserve" text-anchor="start" font-family="Helvetica, Arial, sans-serif" font-size="84" id="svg_12" y="109.09091" x="42.5" stroke-width="4" fill="#d30000">NGONPLUS</text>
 </g>
</svg>